# xmcd CD database file
#
# Track frame offsets:
#	150
#	24257
#	40475
#	75227
#	101692
#	125840
#	149655
#	178835
#	211507
#	227480
#	253540
#
# Disc length: 4372 seconds
#
# Revision: 1
# Processed by: cddbd v1.5.2PL0 Copyright (c) Steve Scherf et al.
# Submitted via: CDex 1.70
#
DISCID=8e11120b
DTITLE=Bob Dylan - Time Out Of Mind
DYEAR=1997
DGENRE=Blues
TTITLE0=Love Sick
TTITLE1=Dirt Road Blues
TTITLE2=Standing In The Doorway
TTITLE3=Million Miles
TTITLE4=Tryin' To Get To Heaven
TTITLE5='til I Fell In Love With You
TTITLE6=Not Dark Yet
TTITLE7=Cold Irons Bound
TTITLE8=Make You Feel My Love
TTITLE9=Can't Wait
TTITLE10=Highlands
EXTD=YEAR: 1997
EXTT0=
EXTT1=
EXTT2=
EXTT3=
EXTT4=
EXTT5=
EXTT6=
EXTT7=
EXTT8=
EXTT9=
EXTT10=
PLAYORDER=
